# xmcd CD database file
#
# Track frame offsets:
#	151
#	14738
#	34939
#	56552
#	78273
#	96456
#	115681
#	130774
#	146697
#	171634
#	180567
#	208210
#
# Disc length: 3032 seconds
#
# Revision: 0
# Processed by: cddbd v1.5.1PL2 Copyright (c) Steve Scherf et al.
# Submitted via: CDex 1.51
#
DISCID=b00bd60c
DTITLE=A Choired Taste - Tasty
DYEAR=2006
DGENRE=Blues
TTITLE0=Hollywood Show
TTITLE1=Slut
TTITLE2=Sugar Cane
TTITLE3=Fear
TTITLE4=Honkey Donkey
TTITLE5=Papa
TTITLE6=Colors Bask
TTITLE7=Chemistry
TTITLE8=Soul Smokin'
TTITLE9=Not Me
TTITLE10=Cruise Master imperial
TTITLE11=Give Me A Chance
EXTD=YEAR: 2006
EXTT0=
EXTT1=
EXTT2=
EXTT3=
EXTT4=
EXTT5=
EXTT6=
EXTT7=
EXTT8=
EXTT9=
EXTT10=
EXTT11=
PLAYORDER=
